<?xml version="1.0" encoding="UTF-8" standalone="no"?>
<!-- Created with Inkscape (http://www.inkscape.org/) -->

<svg
   xmlns:dc="http://purl.org/dc/elements/1.1/"
   xmlns:cc="http://creativecommons.org/ns#"
   xmlns:rdf="http://www.w3.org/1999/02/22-rdf-syntax-ns#"
   xmlns:svg="http://www.w3.org/2000/svg"
   xmlns="http://www.w3.org/2000/svg"
   xmlns:sodipodi="http://sodipodi.sourceforge.net/DTD/sodipodi-0.dtd"
   xmlns:inkscape="http://www.inkscape.org/namespaces/inkscape"
   width="210mm"
   height="297mm"
   viewBox="0 0 210 297"
   version="1.1"
   id="svg8"
   inkscape:version="0.92.4 (33fec40, 2019-01-16)"
   sodipodi:docname="mars-background.svg">
  <defs
     id="defs2" />
  <sodipodi:namedview
     id="base"
     pagecolor="#ffffff"
     bordercolor="#666666"
     borderopacity="1.0"
     inkscape:pageopacity="0.0"
     inkscape:pageshadow="2"
     inkscape:zoom="0.49497475"
     inkscape:cx="387.72872"
     inkscape:cy="638.74599"
     inkscape:document-units="mm"
     inkscape:current-layer="layer1"
     showgrid="false"
     inkscape:window-width="1855"
     inkscape:window-height="1056"
     inkscape:window-x="1985"
     inkscape:window-y="24"
     inkscape:window-maximized="1" />
  <metadata
     id="metadata5">
    <rdf:RDF>
      <cc:Work
         rdf:about="">
        <dc:format>image/svg+xml</dc:format>
        <dc:type
           rdf:resource="http://purl.org/dc/dcmitype/StillImage" />
        <dc:title></dc:title>
      </cc:Work>
    </rdf:RDF>
  </metadata>
  <g
     inkscape:label="Layer 1"
     inkscape:groupmode="layer"
     id="layer1">
    <rect
       style="fill:#af5a4d;fill-opacity:1;stroke:none;stroke-width:0.12541656"
       id="rect10"
       width="237.00769"
       height="237.00769"
       x="0"
       y="59.99231"
       ry="0.50675941" />
    <path
       style="fill:#bc9474;fill-opacity:1;stroke:none;stroke-width:0.24368352px;stroke-linecap:butt;stroke-linejoin:miter;stroke-opacity:1"
       d="M 68.295555,193.67949 C 36.559408,202.0993 0.23193128,225.93173 0.23193128,225.93173 l -0.20026,70.97325 167.85446872,0.0795 c 0,0 11.52931,-23.40605 6.65884,-43.51979 -6.22324,-25.70036 -21.57957,-53.7628 -45.53546,-64.9589 -18.40088,-8.59989 -41.081815,-0.0348 -60.713965,5.17372 z"
       id="path819"
       inkscape:connector-curvature="0"
       sodipodi:nodetypes="scccsss" />
    <path
       style="fill:#bc9474;fill-opacity:1;stroke:none;stroke-width:0.24368352px;stroke-linecap:butt;stroke-linejoin:miter;stroke-opacity:1"
       d="M 1.2849121e-6,59.992314 0.00900128,119.31164 c 0,0 3.81663002,5.28983 23.93037372,0.41937 25.700355,-6.22325 53.762792,-21.579581 64.958892,-45.535466 7.546925,-6.10089 -6.94067,-14.34747 -6.94067,-14.34747 z"
       id="path819-3"
       inkscape:connector-curvature="0"
       sodipodi:nodetypes="ccsccc" />
    <path
       style="fill:#bc9474;fill-opacity:1;stroke:none;stroke-width:0.24368352px;stroke-linecap:butt;stroke-linejoin:miter;stroke-opacity:1"
       d="m 192.8832,205.18321 c -6.27439,32.22899 -1.94751,91.67801 -1.94751,91.67801 l 46.07199,0.13877 c -0.33949,-51.18631 0.17891,-101.91338 -0.22257,-153.52948 0,0 -1.53221,-11.84043 -22.06054,4.82766 -15.76811,12.80301 -17.96,36.948 -21.84137,56.88504 z"
       id="path819-3-6"
       inkscape:connector-curvature="0"
       sodipodi:nodetypes="scccss" />
    <path
       style="fill:#bc9474;fill-opacity:1;stroke:none;stroke-width:0.24368352px;stroke-linecap:butt;stroke-linejoin:miter;stroke-opacity:1"
       d="m 172.79649,134.43855 c 31.32379,9.84361 64.21201,-5.47274 64.21201,-5.47274 l -9.5e-4,-68.973496 -160.550997,-0.10064 -6.228014,8.81971 c 0,0 38.074971,11.36298 54.694801,21.802825 18.33891,11.519711 27.21233,37.431651 47.87302,43.924341 z"
       id="path819-3-7"
       inkscape:connector-curvature="0"
       sodipodi:nodetypes="sccccss" />
  </g>
</svg>
